<?xml version="1.0" encoding="UTF-8" standalone="no"?>
<!-- Created with Inkscape (http://www.inkscape.org/) -->

<svg
   xmlns:dc="http://purl.org/dc/elements/1.1/"
   xmlns:cc="http://creativecommons.org/ns#"
   xmlns:rdf="http://www.w3.org/1999/02/22-rdf-syntax-ns#"
   xmlns:svg="http://www.w3.org/2000/svg"
   xmlns="http://www.w3.org/2000/svg"
   xmlns:sodipodi="http://sodipodi.sourceforge.net/DTD/sodipodi-0.dtd"
   xmlns:inkscape="http://www.inkscape.org/namespaces/inkscape"
   width="auto"
   height="auto"
   preserveAspectRatio="xMinYMin meet" 
   viewBox="0 0 191.34941 191.34941"
   version="1.1"
   id="svg8"
   inkscape:version="0.92.4 (5da689c313, 2019-01-14)"
   sodipodi:docname="bike.svg"
   inkscape:export-filename="C:\Users\bruen\Downloads\icon\bike.png"
   inkscape:export-xdpi="119.47"
   inkscape:export-ydpi="119.47">
  <defs
     id="defs2" />
  <sodipodi:namedview
     id="base"
     pagecolor="#ffffff"
     bordercolor="#666666"
     borderopacity="1.0"
     inkscape:pageopacity="0.0"
     inkscape:pageshadow="2"
     inkscape:zoom="0.7"
     inkscape:cx="13.835559"
     inkscape:cy="354.39167"
     inkscape:document-units="mm"
     inkscape:current-layer="layer1"
     showgrid="false"
     inkscape:window-width="1920"
     inkscape:window-height="1147"
     inkscape:window-x="-8"
     inkscape:window-y="22"
     inkscape:window-maximized="1" />
  <metadata
     id="metadata5">
    <rdf:RDF>
      <cc:Work
         rdf:about="">
        <dc:format>image/svg+xml</dc:format>
        <dc:type
           rdf:resource="http://purl.org/dc/dcmitype/StillImage" />
        <dc:title />
      </cc:Work>
    </rdf:RDF>
  </metadata>
  <g
     inkscape:label="Layer 1"
     inkscape:groupmode="layer"
     id="layer1"
     transform="translate(-10.690773,-26.806084)">
    <circle
       style="fill:#0066ff;stroke-width:2.28224373"
       id="path3754"
       cx="106.36548"
       cy="122.48079"
       r="95.674706" />
    <g
       id="g3724"
       transform="translate(22.465336,-27.83793)"
       style="fill:#f9f9f9">
      <path
         style="fill:#f9f9f9;fill-opacity:1;stroke-width:0.26458332"
         d="m 38.046589,189.87483 c -10.380043,-1.87539 -18.245606,-9.17749 -21.13587,-19.62177 -0.820349,-2.96442 -0.822778,-9.85555 -0.0045,-12.81049 1.366381,-4.93431 3.592049,-8.79888 7.064113,-12.26586 6.756526,-6.74665 16.124368,-9.24389 25.679782,-6.84564 0.480306,0.12055 0.895075,-0.71354 3.970867,-7.98534 1.888998,-4.46597 3.474227,-8.22244 3.522734,-8.34772 0.04851,-0.12527 -1.894086,-0.22777 -4.316873,-0.22777 -4.559837,0 -5.178277,-0.11874 -6.01804,-1.15545 -0.574837,-0.70964 -0.605351,-2.50076 -0.05597,-3.28511 0.892942,-1.27485 1.583078,-1.40156 7.457162,-1.36921 l 5.478165,0.0302 0.87221,-2.07114 c 0.488632,-1.1603 1.226815,-2.39667 1.67854,-2.81136 l 0.806334,-0.74022 6.707753,0.0788 c 6.673937,0.0784 6.711172,0.082 7.385984,0.7164 1.359008,1.27765 1.114869,3.57754 -0.483209,4.55205 -0.720576,0.4394 -1.396362,0.49762 -5.841917,0.50331 l -5.027083,0.006 -1.984375,4.76357 c -1.091407,2.61997 -2.024063,4.87971 -2.072569,5.02165 -0.05678,0.16615 6.785951,0.25807 19.211474,0.25807 h 19.299659 l 1.7103,-4.16719 1.7103,-4.16719 -2.26864,-0.14208 c -2.496097,-0.15632 -3.208298,-0.47265 -3.8824,-1.72438 -0.616718,-1.14518 -0.324943,-2.53251 0.717005,-3.40926 l 0.805053,-0.6774 h 8.605122 8.60511 l 0.89959,0.89958 c 1.01902,1.01902 1.16732,2.04852 0.48513,3.36773 -0.61492,1.18913 -1.77962,1.55352 -4.96549,1.55352 h -2.7511 l -2.31324,5.70946 -2.31323,5.70946 1.21895,1.76502 c 4.29255,6.21554 6.49614,9.16689 6.81143,9.1228 0.19883,-0.0278 1.45099,-0.47217 2.78258,-0.98749 9.48505,-3.67069 20.39739,-1.28958 27.7537,6.05597 4.95213,4.94489 7.44656,10.6801 7.71403,17.73624 0.15052,3.9708 -0.34494,6.99212 -1.73593,10.58564 -2.99783,7.74464 -9.88699,13.83985 -17.9739,15.90249 -10.97705,2.79979 -22.24887,-1.54404 -28.60706,-11.02432 -1.48987,-2.22146 -3.04898,-5.52469 -3.373524,-7.14736 -0.09034,-0.45172 -0.31006,-0.87726 -0.488262,-0.94564 -0.178199,-0.0684 -3.165752,0.36731 -6.639009,0.9682 -5.861288,1.01403 -6.374786,1.06402 -7.146943,0.6958 -0.646065,-0.30808 -3.743053,-4.59806 -13.861946,-19.2017 -7.166507,-10.34275 -13.11452,-18.80499 -13.217808,-18.80499 -0.170005,0 -2.920465,6.28282 -2.920465,6.67116 0,0.0902 0.922734,0.81202 2.05052,1.60408 13.203949,9.27342 15.180749,27.98732 4.180118,39.57219 -2.360718,2.48609 -4.332922,4.00418 -7.092323,5.45925 -5.107077,2.69303 -11.103479,3.63678 -16.692024,2.62708 z m 10.277667,-6.19446 c 4.051216,-1.286 7.574799,-3.5837 10.068578,-6.56565 1.741657,-2.0826 3.621104,-5.78191 4.257958,-8.38094 0.626415,-2.55643 0.61749,-7.33601 -0.01828,-9.78958 -1.29834,-5.01055 -4.275169,-9.27969 -8.55485,-12.2687 l -0.861184,-0.60146 -0.548428,1.2757 c -0.301636,0.70164 -2.104954,4.96664 -4.007374,9.47779 -1.90242,4.51114 -3.625384,8.45793 -3.828809,8.77064 -0.51711,0.79491 -1.745067,1.24511 -2.837247,1.04022 -1.175439,-0.22051 -2.269319,-1.48595 -2.269319,-2.62522 0,-0.4944 1.688219,-4.83914 4.078739,-10.49689 l 4.078743,-9.65333 -0.705305,-0.20723 c -0.387917,-0.11398 -1.957605,-0.27919 -3.488195,-0.36713 -11.857879,-0.68133 -21.691065,8.60029 -21.691065,20.47435 0,3.63877 0.547245,5.97625 2.185831,9.33646 1.186796,2.43374 1.652078,3.07331 3.753403,5.15938 3.293704,3.26978 6.139058,4.86618 10.33264,5.79717 2.66135,0.59084 7.589676,0.40673 10.054166,-0.37558 z m 80.916594,0.41632 c 7.69925,-1.47311 14.12145,-7.60775 16.05811,-15.33909 0.71622,-2.85919 0.71158,-7.01187 -0.011,-9.83723 -2.50027,-9.77663 -11.15902,-16.1788 -21.15584,-15.64234 -2.54742,0.1367 -6.23464,1.00029 -7.33832,1.71872 -0.22537,0.14671 1.07633,2.19292 4.33469,6.81397 6.99193,9.91605 6.96773,9.87851 6.96662,10.80226 -0.001,1.19586 -0.85806,2.4454 -1.89676,2.7667 -0.4842,0.14979 -5.25568,1.01809 -10.60328,1.92957 -5.3476,0.91148 -9.86453,1.74475 -10.03762,1.85173 -0.23138,0.143 -0.12659,0.674 0.39573,2.00529 1.13709,2.89827 2.55228,5.07189 4.69575,7.21231 4.94073,4.9337 11.74844,7.02748 18.59189,5.71811 z M 94.867047,165.03031 c 2.024161,-0.36218 3.704061,-0.68909 3.73311,-0.72648 0.02905,-0.0374 0.191148,-1.31812 0.360219,-2.84609 0.712603,-6.44009 3.035894,-11.46357 7.356884,-15.90728 l 1.96097,-2.01665 -2.71125,-3.87076 c -1.49118,-2.12891 -2.79775,-3.78126 -2.90349,-3.67189 -0.10573,0.10938 -1.94246,4.54465 -4.081616,9.85616 -2.139156,5.31151 -4.818922,11.94925 -5.955035,14.75052 -1.186397,2.92526 -1.932517,5.09275 -1.75287,5.09211 0.172032,-5.3e-4 1.968918,-0.29746 3.993078,-0.65964 z m 17.587673,-3.0385 c 4.13029,-0.72046 7.55963,-1.35993 7.62073,-1.42103 0.19137,-0.19137 -8.23416,-12.05653 -8.56911,-12.06735 -0.17485,-0.006 -1.04762,0.85293 -1.9395,1.90795 -1.80011,2.12942 -3.71061,5.78883 -4.31665,8.26823 -0.50921,2.08323 -0.79703,4.63127 -0.52258,4.62618 0.11961,-0.002 3.59681,-0.59351 7.72711,-1.31398 z M 91.188884,148.75774 c 3.016689,-7.49432 5.75772,-14.28089 6.091182,-15.08125 l 0.60629,-1.45521 -16.554915,-0.0682 c -9.105204,-0.0375 -16.602992,-0.0201 -16.661754,0.0387 -0.05876,0.0588 4.08305,6.16162 9.204023,13.5619 10.976393,15.86191 11.653102,16.82422 11.753559,16.71414 0.0422,-0.0463 2.544926,-6.2158 5.561615,-13.71012 z"
         id="path3738"
         inkscape:connector-curvature="0" />
      <path
         style="fill:#f9f9f9;fill-opacity:1;stroke-width:0.26458332"
         d="m 39.593007,190.13752 c -8.663519,-1.28357 -15.610743,-5.84883 -19.85896,-13.05001 -4.120875,-6.98532 -4.667961,-15.90473 -1.44971,-23.63532 1.727529,-4.14971 5.491257,-8.7492 9.237689,-11.28898 2.414366,-1.63674 6.135089,-3.3143 8.895981,-4.01091 3.159344,-0.79715 8.530431,-0.86727 11.59683,-0.15141 1.139505,0.26602 2.111634,0.44365 2.160283,0.39474 0.07184,-0.0722 6.493811,-15.14995 6.940296,-16.29466 0.100057,-0.25653 -0.862444,-0.33073 -4.290259,-0.33073 -4.792654,0 -5.599112,-0.19665 -6.198147,-1.51139 -0.416994,-0.9152 -0.351959,-2.24706 0.144325,-2.95561 0.841507,-1.20141 1.824963,-1.37559 7.580074,-1.34248 l 5.336386,0.0307 0.87979,-2.07155 c 0.483886,-1.13935 1.17403,-2.3692 1.533655,-2.733 l 0.653864,-0.66146 6.464631,-0.0792 c 7.142995,-0.0875 7.685026,0.0101 8.468791,1.52577 0.510534,0.98726 0.507148,1.68244 -0.0131,2.68847 -0.695103,1.34418 -1.641563,1.55313 -7.051532,1.55677 l -4.837144,0.003 -1.907627,4.56081 c -1.049198,2.50844 -1.984968,4.76994 -2.07949,5.02555 -0.163079,0.44099 0.818142,0.46128 19.197303,0.39688 l 19.369164,-0.0679 1.6586,-4.13652 1.6586,-4.13653 -2.34424,-0.11208 c -2.145136,-0.10256 -2.411492,-0.17651 -3.136125,-0.87075 -0.993119,-0.95147 -1.252755,-2.17753 -0.691113,-3.26362 0.853935,-1.65132 0.757317,-1.6357 10.117668,-1.6357 h 8.51979 l 0.80505,0.6774 c 1.04195,0.87675 1.33372,2.26408 0.71701,3.40926 -0.73682,1.36818 -1.31563,1.57575 -4.70479,1.6872 -1.98695,0.0653 -3.13579,0.21002 -3.21632,0.40504 -1.75428,4.24825 -4.40827,10.88816 -4.40827,11.02889 0,0.20382 6.98809,10.2256 7.51621,10.77918 0.26045,0.273 0.62463,0.20378 1.89324,-0.35987 0.86392,-0.38384 2.66981,-0.97799 4.0131,-1.32032 14.09456,-3.59196 28.39328,4.92642 32.11459,19.13208 0.76418,2.91717 0.94357,7.73206 0.40331,10.82469 -1.85498,10.61838 -9.83535,18.99754 -20.40816,21.42799 -3.07711,0.70736 -8.47267,0.65201 -11.59059,-0.1189 -5.23152,-1.29349 -9.48052,-3.76699 -13.17558,-7.66998 -2.63866,-2.78714 -4.42121,-5.65301 -5.63854,-9.0653 -0.506941,-1.42098 -1.055893,-2.53008 -1.274076,-2.57413 -0.21085,-0.0426 -3.144922,0.40382 -6.520159,0.99197 -5.536583,0.96477 -6.221724,1.03387 -7.005119,0.70655 -0.72141,-0.30142 -3.072619,-3.54576 -13.897117,-19.17604 -7.165839,-10.34729 -13.111117,-18.86144 -13.211724,-18.92035 -0.100608,-0.0589 -0.848464,1.4725 -1.661899,3.40315 l -1.478973,3.51026 1.968519,1.28718 c 2.083956,1.36265 5.448688,4.67102 6.906963,6.79127 1.970797,2.86541 3.670025,7.03218 4.28326,10.50319 0.420286,2.37889 0.359553,7.43029 -0.116221,9.66638 -1.061114,4.98713 -3.29376,9.22738 -6.82005,12.95267 -4.877771,5.15303 -11.129097,7.96617 -18.213482,8.19621 -1.67349,0.0543 -3.399896,0.0459 -3.836458,-0.0188 z m 8.455919,-6.32547 c 6.902568,-1.92326 12.466761,-7.5221 14.473967,-14.56408 0.850625,-2.98428 0.850625,-7.83369 0,-10.81797 -0.774917,-2.71868 -2.34084,-5.70731 -4.121539,-7.86613 -1.473449,-1.78634 -4.905761,-4.57383 -5.225909,-4.24414 -0.100968,0.10398 -1.936954,4.35624 -4.079971,9.44947 -2.211064,5.25495 -4.18471,9.5737 -4.562964,9.98472 -1.647325,1.79002 -4.807211,0.64158 -4.807211,-1.74716 0,-0.42505 1.796006,-5.01223 3.991125,-10.19373 2.195121,-5.18151 4.048675,-9.55762 4.119015,-9.72471 0.21913,-0.52055 -3.446725,-0.97422 -6.522641,-0.80723 -5.549292,0.30129 -10.01047,2.42558 -13.94768,6.6415 -2.204671,2.36074 -4.062499,5.73334 -4.856876,8.81691 -0.663421,2.57523 -0.726676,7.12557 -0.134545,9.67878 1.82718,7.87865 8.245605,14.0901 16.313161,15.7871 1.73437,0.36483 7.512278,0.12208 9.362068,-0.39333 z m 83.354494,-0.22843 c 3.46505,-1.13253 5.78866,-2.58535 8.50777,-5.3194 2.12008,-2.13174 2.58779,-2.77929 3.74811,-5.18931 1.704,-3.53923 2.16439,-5.48135 2.16206,-9.12054 -0.002,-3.74202 -0.66836,-6.55309 -2.30676,-9.73697 -1.00163,-1.94645 -1.70919,-2.88052 -3.63475,-4.79827 -4.58841,-4.56981 -9.35138,-6.44404 -15.62018,-6.14657 -2.69126,0.1277 -6.29041,0.95918 -7.46732,1.72511 -0.22703,0.14775 1.41095,2.68456 5.4901,8.50278 4.35105,6.20602 5.81368,8.48637 5.81368,9.06393 0,1.02931 -0.60235,2.14109 -1.38775,2.56142 -0.35153,0.18813 -5.27302,1.14478 -10.93664,2.12589 l -10.29749,1.78382 0.0564,0.77518 c 0.0933,1.28335 2.31229,5.41609 3.96791,7.39013 2.77277,3.30606 7.06427,5.90088 11.33887,6.85593 2.85707,0.63834 7.84935,0.41479 10.56601,-0.47313 z m -36.548832,-18.5335 c 2.010463,-0.35253 3.70532,-0.69089 3.766346,-0.75191 0.06103,-0.061 0.225502,-1.29064 0.365498,-2.73249 0.609071,-6.27284 2.965168,-11.45607 7.226608,-15.89796 l 2.07602,-2.16393 -2.70529,-3.85534 c -1.48791,-2.12043 -2.77608,-3.85267 -2.86261,-3.84941 -0.31447,0.0118 -12.148133,29.89199 -11.838351,29.89199 0.174014,0 1.961314,-0.28843 3.971779,-0.64095 z m 17.599022,-3.04834 c 4.12439,-0.71942 7.55477,-1.36393 7.62307,-1.43224 0.0683,-0.0683 -1.81174,-2.87471 -4.17789,-6.23645 l -4.30208,-6.11227 -0.76917,0.73148 c -2.2904,2.17816 -4.60058,6.14326 -5.46832,9.38561 -0.62123,2.32127 -0.96149,4.97191 -0.63823,4.97191 0.12856,0 3.60824,-0.58862 7.73262,-1.30804 z m -20.48683,-15.09613 5.923579,-14.68437 -16.556918,-0.0682 c -9.106301,-0.0375 -16.608935,-0.0161 -16.672511,0.0474 -0.06358,0.0636 3.78575,5.74971 8.554068,12.63586 12.93918,18.68606 12.339206,17.86408 12.602601,17.26592 0.124082,-0.28178 2.891213,-7.1203 6.149181,-15.19671 z"
         id="path3736"
         inkscape:connector-curvature="0" />
      <path
         style="fill:#f9f9f9;fill-opacity:1;stroke-width:0.26458332"
         d="m 38.523984,189.93268 c -7.396967,-1.21369 -13.960313,-5.47098 -18.00815,-11.68091 -5.657539,-8.67943 -5.74235,-19.926 -0.214967,-28.5065 4.007394,-6.22092 10.018403,-10.31218 17.440057,-11.87019 2.275487,-0.47768 7.762062,-0.39963 10.280279,0.14625 1.143008,0.24778 2.124138,0.40456 2.180291,0.34841 0.117281,-0.11729 6.986304,-16.30146 6.986304,-16.4605 0,-0.0577 -2.093632,-0.14233 -4.652515,-0.18809 l -4.652518,-0.0832 -0.771441,-0.86407 c -1.488074,-1.66675 -0.790127,-3.9849 1.375328,-4.568 0.618239,-0.16647 3.176249,-0.26581 6.137376,-0.23834 l 5.077311,0.0471 0.926042,-2.14332 c 1.52577,-3.53139 1.026311,-3.33233 8.59369,-3.42508 7.141535,-0.0875 7.683711,0.0102 8.467455,1.52577 0.510534,0.98726 0.507148,1.68244 -0.0131,2.68847 -0.695698,1.34534 -1.640785,1.55352 -7.052567,1.55352 h -4.838178 l -1.912059,4.56406 c -1.051634,2.51024 -1.986939,4.7732 -2.078456,5.02881 -0.157874,0.44095 0.825143,0.46127 19.197621,0.39688 l 19.364013,-0.0679 1.69933,-4.19203 c 0.93463,-2.30562 1.69933,-4.24038 1.69933,-4.29948 0,-0.0591 -1.06242,-0.10744 -2.36095,-0.10744 -2.139066,0 -2.435626,-0.0628 -3.15555,-0.66861 -0.997643,-0.83947 -1.247968,-1.90008 -0.737055,-3.12287 0.714433,-1.70988 1.027332,-1.76477 10.059655,-1.76477 4.59935,0 8.35732,0.11087 8.74426,0.25798 1.79881,0.68391 2.17869,3.22305 0.68382,4.57066 -0.78059,0.7037 -0.90588,0.72761 -3.81325,0.72761 -2.09222,0 -3.08383,0.10054 -3.26169,0.33073 -0.27052,0.3501 -4.57355,11.04632 -4.57241,11.36583 8e-4,0.23069 7.37791,10.74257 7.66235,10.91836 0.11255,0.0696 1.20466,-0.27676 2.42691,-0.76961 3.25668,-1.3132 5.90561,-1.809 9.75516,-1.82589 4.71933,-0.0207 7.9957,0.75828 12.1732,2.89424 6.83902,3.49681 11.88752,10.03716 13.66253,17.69988 0.7181,3.10003 0.66373,8.72593 -0.1145,11.84653 -3.58652,14.38163 -17.95477,23.02678 -32.20154,19.37514 -8.6777,-2.22422 -15.84807,-8.97154 -18.54547,-17.45131 -0.532198,-1.67306 -0.656335,-1.85464 -1.211201,-1.7717 -0.340024,0.0508 -3.280153,0.55311 -6.533615,1.11616 -5.233307,0.9057 -6.011696,0.98351 -6.750608,0.67477 -0.678757,-0.28361 -3.288006,-3.89833 -13.928362,-19.29569 -7.201228,-10.42069 -13.152672,-18.9513 -13.225433,-18.95692 -0.07276,-0.006 -0.389411,0.61471 -0.70367,1.37849 -0.314259,0.76378 -0.986909,2.35357 -1.494779,3.53286 l -0.923401,2.14417 1.719093,1.13024 c 5.034327,3.30988 8.971372,8.65307 10.835936,14.70606 0.683463,2.21876 0.728496,2.66752 0.728496,7.25974 0,4.59222 -0.04503,5.04098 -0.728496,7.25973 -2.823877,9.16725 -9.905807,16.01643 -18.926846,18.3048 -3.120652,0.79162 -7.53632,1.0143 -10.493063,0.52916 z m 9.535689,-6.09482 c 3.866779,-1.06968 8.149262,-3.88863 10.59716,-6.9756 1.47946,-1.8657 3.403552,-5.69771 4.014967,-7.99619 0.627457,-2.35879 0.627457,-7.69537 0,-10.05417 -0.66776,-2.51029 -2.588876,-6.22317 -4.271999,-8.25634 -1.572993,-1.90013 -4.875956,-4.5897 -5.217282,-4.24838 -0.113781,0.11378 -1.995992,4.42812 -4.182691,9.58741 -2.214671,5.22529 -4.24738,9.65209 -4.588875,9.99359 -1.695262,1.69526 -4.685654,0.36466 -4.685654,-2.08493 0,-0.29175 1.798284,-4.77861 3.996187,-9.9708 2.197904,-5.19218 4.051411,-9.57691 4.118903,-9.74385 0.07872,-0.19468 -0.539972,-0.42193 -1.725536,-0.6338 -2.562867,-0.45801 -7.060529,-0.19911 -9.432263,0.54295 -6.351845,1.98736 -11.56442,6.96824 -13.649781,13.04306 -3.968121,11.55945 2.609143,23.70006 14.575823,26.90471 1.63432,0.43767 2.591137,0.51378 5.423958,0.43146 2.087983,-0.0607 4.063399,-0.27253 5.027083,-0.53912 z m 82.026937,0.1079 c 8.62286,-2.20536 14.73677,-9.15955 15.72493,-17.88614 0.74432,-6.57317 -1.55539,-12.63769 -6.58737,-17.37142 -3.71638,-3.4961 -7.81879,-5.18935 -13.11242,-5.41211 -3.2998,-0.13886 -6.17067,0.31581 -8.68716,1.3758 l -1.01426,0.42722 0.4671,0.71483 c 0.2569,0.39316 2.8862,4.15537 5.84289,8.36046 3.89775,5.54349 5.37581,7.84976 5.37581,8.38808 0,1.0044 -0.48593,2.00107 -1.20551,2.47255 -0.33222,0.21768 -5.19063,1.17499 -11.00558,2.16855 -5.72593,0.97836 -10.46574,1.82203 -10.53291,1.87483 -0.3389,0.26641 1.33744,4.12257 2.67436,6.15192 2.98036,4.52399 7.6274,7.75531 12.7576,8.87101 2.54068,0.55254 6.85801,0.48962 9.30252,-0.13558 z M 95.141849,165.02849 c 2.02978,-0.36319 3.707656,-0.66034 3.728614,-0.66034 0.02096,0 0.06063,-0.80367 0.08816,-1.78593 0.1,-3.56788 1.009081,-7.05536 2.741517,-10.51719 1.33459,-2.66684 2.48,-4.26238 4.78237,-6.66173 l 1.82246,-1.89923 -2.69414,-3.85546 c -1.48177,-2.1205 -2.77353,-3.85365 -2.87056,-3.85145 -0.13518,0.003 -6.529962,15.64938 -11.747534,28.74304 -0.562488,1.41158 -0.833067,1.37974 4.149111,0.48829 z m 17.416221,-3.00796 c 4.04162,-0.70442 7.41617,-1.34854 7.49901,-1.43138 0.0828,-0.0828 -1.78294,-2.90492 -4.14617,-6.27129 l -4.29677,-6.12069 -1.04066,1.00789 c -1.50874,1.46123 -3.79199,5.0013 -4.58966,7.11605 -0.6866,1.82026 -1.43561,5.13358 -1.43561,6.35053 0,0.351 0.14883,0.63626 0.33073,0.63392 0.1819,-0.002 3.63751,-0.58061 7.67913,-1.28503 z m -26.795274,0.41421 c 0,-0.0627 11.467385,-28.5353 12.0886,-30.01502 0.110234,-0.26257 -3.326061,-0.33073 -16.674009,-0.33073 H 64.364533 l 10.500693,15.1985 c 9.004855,13.03344 10.89757,15.66426 10.89757,15.14725 z"
         id="path3734"
         inkscape:connector-curvature="0" />
      <path
         style="fill:#f9f9f9;fill-opacity:1;stroke-width:0.26458332"
         d="m 39.184274,190.00642 c -6.481451,-0.83826 -13.065534,-4.5377 -17.110717,-9.61411 -2.125273,-2.66705 -4.363315,-7.15677 -5.152123,-10.33561 -0.841177,-3.38989 -0.841177,-9.04553 0,-12.43542 0.804872,-3.24359 3.026966,-7.67718 5.199664,-10.37455 3.408172,-4.23118 8.617346,-7.55965 14.032326,-8.96614 3.368622,-0.87497 8.313223,-0.9862 11.729968,-0.26387 1.212733,0.25638 2.261674,0.40944 2.330982,0.34014 0.13558,-0.13558 6.617498,-15.36487 6.855234,-16.1064 0.129691,-0.40452 -0.289197,-0.45354 -4.521956,-0.52917 l -4.664887,-0.0833 -0.771441,-0.86407 c -1.07747,-1.20684 -1.076695,-2.70784 0.0019,-3.78649 l 0.773498,-0.7734 5.907334,-5.3e-4 5.90733,-5.3e-4 0.94447,-2.31456 c 1.452338,-3.55918 1.31745,-3.50521 8.760446,-3.50521 6.889935,0 7.587679,0.14208 8.328684,1.69599 0.372864,0.7819 0.394242,1.09823 0.133114,1.9698 -0.558604,1.86445 -1.040582,2.01084 -6.941383,2.10819 l -5.178832,0.0854 -2.031992,4.80934 c -1.117595,2.64514 -2.031571,4.89942 -2.031061,5.00951 5.3e-4,0.11008 8.707943,0.16961 19.349849,0.13229 l 19.348919,-0.0679 1.52843,-3.74856 c 0.84064,-2.06171 1.60712,-3.99648 1.70329,-4.29948 0.16824,-0.5301 0.0855,-0.55091 -2.18855,-0.55091 -2.69931,0 -3.496068,-0.39 -4.016138,-1.96583 -0.393928,-1.19361 0.175482,-2.60335 1.282811,-3.17597 1.173316,-0.60675 16.599757,-0.61812 17.769727,-0.0131 1.74828,0.90407 2.00094,3.20713 0.49121,4.47749 -0.76351,0.64245 -0.96498,0.67741 -3.90446,0.67741 h -3.09941 l -2.30425,5.67999 c -1.26734,3.124 -2.30425,5.80787 -2.30425,5.96416 0,0.20133 6.08157,9.089 7.58387,11.08315 0.0437,0.058 1.02765,-0.26926 2.18659,-0.72723 7.5317,-2.97626 14.78814,-2.72577 21.84725,0.75414 11.00592,5.42557 16.78691,17.86905 13.88994,29.89787 -0.3061,1.27095 -1.16301,3.5146 -1.97051,5.15937 -7.85201,15.99344 -28.64504,19.84036 -41.6225,7.70058 -3.15838,-2.95451 -5.50766,-6.60593 -6.97939,-10.84788 -0.661668,-1.90709 -0.81053,-2.13497 -1.345348,-2.05948 -0.330748,0.0467 -2.981701,0.49317 -5.891003,0.99219 -6.338284,1.08717 -7.237537,1.12168 -8.099327,0.31082 -0.348671,-0.32807 -6.408478,-8.9572 -13.466238,-19.17585 -7.05776,-10.21865 -12.905065,-18.58226 -12.99401,-18.58581 -0.08895,-0.004 -0.404474,0.61864 -0.701177,1.38262 -0.296704,0.76399 -0.958977,2.36063 -1.471719,3.5481 l -0.932256,2.15905 1.765726,1.13043 c 2.177235,1.39388 5.658302,4.83123 7.177896,7.08775 1.548623,2.29963 3.025746,5.53121 3.763463,8.23352 0.534871,1.95928 0.611603,2.82832 0.595717,6.74688 -0.02085,5.14315 -0.395449,6.99532 -2.188758,10.82215 -2.478389,5.28874 -6.302422,9.39469 -11.434359,12.27731 -2.14494,1.20482 -6.640518,2.61483 -9.377397,2.94116 -2.679872,0.31953 -3.989698,0.31843 -6.494149,-0.005 z m 8.370056,-6.06516 c 9.315036,-2.38222 15.73427,-10.61639 15.714291,-20.15726 -0.01146,-5.47603 -2.134574,-10.55331 -6.071391,-14.51937 -1.611582,-1.62356 -3.880792,-3.36466 -4.07326,-3.1253 -0.04638,0.0577 -1.902979,4.41286 -4.125783,9.67819 -2.222807,5.26533 -4.295801,9.81064 -4.606655,10.1007 -0.823711,0.7686 -1.802728,0.92924 -2.891291,0.4744 -0.965269,-0.40331 -1.774942,-1.55406 -1.774942,-2.52262 0,-0.28844 1.846137,-4.89744 4.102528,-10.24221 2.25639,-5.34478 4.06301,-9.75729 4.014716,-9.80559 -0.282215,-0.28221 -3.256209,-0.62045 -5.441378,-0.61886 -6.771362,0.005 -13.148114,3.36737 -16.907838,8.91542 -1.488128,2.19597 -2.070728,3.43404 -2.860446,6.07869 -0.591317,1.98023 -0.697031,2.83584 -0.697031,5.64154 0,2.81602 0.105161,3.661 0.707956,5.68854 2.313253,7.78075 8.181015,13.0615 16.420034,14.77737 1.667399,0.34725 6.524101,0.13925 8.49049,-0.36364 z m 83.58451,-0.20356 c 7.46725,-2.46765 12.52188,-7.86723 14.3237,-15.30123 0.58042,-2.3947 0.58042,-6.80027 0,-9.19497 -1.93344,-7.97704 -7.944,-13.87911 -15.9476,-15.65974 -2.9999,-0.66742 -7.70961,-0.43198 -10.54694,0.52723 -1.16416,0.39358 -2.21204,0.80891 -2.32862,0.92298 -0.11658,0.11406 2.36743,3.87238 5.52001,8.3518 6.35068,9.02355 6.54563,9.42641 5.28597,10.92342 -0.38839,0.46158 -1.08546,0.9417 -1.54905,1.06695 -0.46359,0.12524 -5.28865,0.99193 -10.72235,1.92597 l -9.87946,1.69825 0.14487,0.89364 c 0.24331,1.50097 2.23672,5.18676 3.83334,7.08779 2.88056,3.42976 6.6484,5.84268 10.88592,6.97132 2.65469,0.70706 8.541,0.59266 10.98021,-0.21341 z M 98.887343,164.37393 c 0.01521,-0.003 0.09655,-1.16664 0.180743,-2.58546 0.359073,-6.05143 2.935194,-11.74909 7.410784,-16.39056 l 1.83655,-1.90462 -2.69038,-3.85007 c -1.4797,-2.11753 -2.77479,-3.85006 -2.87798,-3.85006 -0.13873,0 -11.146283,26.98805 -12.094658,29.65339 -0.127976,0.35967 0.425468,0.31504 4.029458,-0.32495 2.297795,-0.40804 4.190262,-0.74449 4.205483,-0.74767 z m 12.540037,-2.12846 c 3.41974,-0.58527 6.83077,-1.18648 7.58007,-1.33602 l 1.36237,-0.27189 -4.38798,-6.24766 -4.38797,-6.24765 -1.34503,1.44502 c -2.71995,2.92217 -4.51239,6.3601 -5.29737,10.16042 -0.4924,2.38388 -0.51639,3.56217 -0.0725,3.56202 0.1819,-6e-5 3.1287,-0.47897 6.54844,-1.06424 z M 91.948905,147.05813 c 3.289551,-8.13806 5.941258,-14.83622 5.892681,-14.88479 -0.04858,-0.0486 -7.585551,-0.0577 -16.748834,-0.0202 l -16.66051,0.0681 10.592903,15.28073 c 7.824618,11.28736 10.63862,15.15946 10.767832,14.81667 0.09621,-0.25524 2.866377,-7.12248 6.155928,-15.26055 z"
         id="path3732"
         inkscape:connector-curvature="0" />
      <path
         style="fill:#f9f9f9;fill-opacity:1;stroke-width:0.26458332"
         d="m 39.4761,190.01372 c -12.248257,-1.50114 -21.745906,-11.15058 -23.089846,-23.45889 -1.573198,-14.40793 9.162063,-27.52908 23.632042,-28.88422 2.619433,-0.24531 6.059558,-0.035 8.552179,0.52281 0.896226,0.20057 1.574977,0.23696 1.701096,0.0912 0.219221,-0.25334 6.916227,-16.06476 6.916227,-16.32898 0,-0.0832 -2.093632,-0.18874 -4.652515,-0.2345 l -4.652518,-0.0832 -0.771441,-0.86407 c -0.873328,-0.97819 -0.994817,-2.03754 -0.371829,-3.24227 0.219787,-0.42502 0.628679,-0.89536 0.908648,-1.04519 0.302998,-0.16216 2.845334,-0.27584 6.281115,-0.28086 l 5.772081,-0.008 1.059143,-2.43897 c 1.487093,-3.42444 1.329108,-3.36407 8.805084,-3.36459 6.786806,-5.3e-4 7.488359,0.14903 8.151963,1.73726 0.497213,1.19 0.296749,2.23452 -0.601175,3.13244 -0.673862,0.67387 -0.687248,0.67553 -5.991095,0.7469 l -5.315723,0.0715 -2.16612,5.09493 -2.166119,5.09492 19.468117,-0.0678 19.468116,-0.0679 1.53452,-3.81498 c 0.84399,-2.09824 1.60372,-4.033 1.6883,-4.29948 0.14128,-0.44514 -0.0399,-0.48449 -2.23055,-0.48449 -2.094509,0 -2.46709,-0.0724 -3.065205,-0.59532 -1.414132,-1.23642 -1.312055,-3.51981 0.198522,-4.44086 0.79501,-0.48474 1.374402,-0.51816 8.998793,-0.51908 9.12438,-10e-4 9.42764,0.0516 10.14302,1.76378 0.51092,1.22279 0.26059,2.2834 -0.73705,3.12287 -0.75177,0.63257 -0.96319,0.66861 -3.92223,0.66861 h -3.12762 l -2.27604,5.68917 c -1.25181,3.12905 -2.27603,5.81632 -2.27603,5.97171 0,0.49117 7.52451,11.07113 7.8819,11.08246 0.18769,0.006 0.80416,-0.22533 1.36991,-0.51396 3.11209,-1.58766 8.8623,-2.50203 13.19902,-2.09883 14.49046,1.34722 25.29158,14.60026 23.61986,28.98171 -2.15257,18.51815 -21.75444,29.05041 -38.2298,20.54121 -6.16541,-3.18431 -10.61627,-8.36762 -12.89497,-15.01702 -0.570936,-1.66603 -0.828349,-2.10649 -1.209079,-2.06889 -0.266044,0.0263 -2.935597,0.47277 -5.932344,0.99219 -6.132208,1.0629 -7.271398,1.12991 -8.082661,0.47551 -0.311692,-0.25143 -1.383255,-1.65763 -2.38125,-3.12489 -5.347472,-7.86189 -24.060437,-34.76302 -24.184344,-34.7666 -0.07964,-0.002 -0.661114,1.2162 -1.292156,2.70779 -0.631044,1.49159 -1.306687,3.08712 -1.501426,3.54563 l -0.354076,0.83365 1.778524,1.15032 c 0.978186,0.63267 2.746219,2.103 3.928959,3.26739 3.307154,3.25584 5.427565,6.84389 6.880053,11.64207 0.659696,2.17926 0.721947,2.76279 0.733843,6.87917 0.01349,4.66571 -0.173231,5.87265 -1.443712,9.33217 -1.771505,4.82379 -5.528887,9.64265 -9.721397,12.46772 -5.269214,3.55061 -12.035292,5.24192 -18.030714,4.50713 z m 8.044985,-6.08663 c 15.324642,-3.7245 20.953744,-22.70101 10.157464,-34.24227 -1.446945,-1.54679 -4.337256,-3.7986 -4.557609,-3.5508 -0.05388,0.0606 -1.851228,4.27736 -3.994104,9.37059 -2.142877,5.09323 -4.072552,9.53826 -4.288168,9.87783 -0.613982,0.96697 -2.048394,1.45901 -3.172161,1.08814 -0.985847,-0.32537 -1.938523,-1.56843 -1.940219,-2.53163 -5.44e-4,-0.30883 1.844479,-4.92056 4.100052,-10.2483 2.255573,-5.32773 4.101041,-9.7384 4.101041,-9.80147 0,-0.3153 -2.992918,-0.68769 -5.526949,-0.68769 -6.29625,0 -12.093582,2.76658 -15.939912,7.60678 -3.114119,3.91879 -4.551419,8.02864 -4.557115,13.03072 -0.0042,3.64505 0.47977,5.8578 1.94292,8.8841 4.350665,8.99869 13.986244,13.55869 23.67476,11.204 z m 82.782945,0.009 c 9.94911,-2.42055 16.84446,-12.36586 15.55341,-22.43298 -1.0514,-8.19837 -6.32269,-14.6713 -14.18944,-17.42405 -1.98202,-0.69356 -2.38596,-0.74029 -6.35,-0.73469 -3.90632,0.006 -4.40113,0.0622 -6.40558,0.73356 -1.19474,0.40017 -2.23807,0.83408 -2.31852,0.96424 -0.0804,0.13017 2.40673,3.87583 5.52706,8.32369 3.12033,4.44787 5.75199,8.33487 5.84814,8.6378 0.43001,1.35483 -0.65234,3.00165 -2.23699,3.40365 -0.5188,0.13161 -5.31882,0.98634 -10.66671,1.8994 -11.18292,1.9093 -10.29436,1.4277 -8.82852,4.78508 4.0602,9.29948 14.1392,14.25972 24.06715,11.8443 z M 98.357917,164.50113 c 0.505638,-0.1123 0.570696,-0.36017 0.710774,-2.70798 0.359971,-6.03331 2.883489,-11.62378 7.386999,-16.36481 1.2313,-1.29624 1.77241,-2.05276 1.63188,-2.2815 -0.11563,-0.18823 -1.37553,-1.99501 -2.79979,-4.01507 l -2.58955,-3.67285 -0.37058,0.89472 c -1.50322,3.62932 -11.62897,28.76561 -11.725855,29.10841 -0.109392,0.38705 0.262096,0.36579 3.538659,-0.20243 2.013487,-0.34918 3.911346,-0.6905 4.217463,-0.75849 z m 14.079203,-2.39665 c 3.88303,-0.66294 7.25441,-1.28801 7.49196,-1.38906 0.35364,-0.15043 -0.0299,-0.83529 -2.11667,-3.7795 -1.40172,-1.97767 -3.36463,-4.75851 -4.36204,-6.17963 l -1.81347,-2.58386 -1.18161,1.15255 c -2.56991,2.50669 -4.71011,6.53665 -5.48897,10.33567 -0.54237,2.64548 -0.54338,3.64917 -0.004,3.64917 0.22794,0 3.59145,-0.5424 7.47448,-1.20534 z M 91.72471,147.6994 c 3.310739,-8.22192 6.076024,-15.15731 6.14508,-15.41197 0.118618,-0.43744 -0.804521,-0.46302 -16.706344,-0.46302 -9.257545,0 -16.831899,0.0659 -16.831899,0.14647 0,0.193 21.240064,30.82658 21.315502,30.74238 0.03198,-0.0357 2.766925,-6.79193 6.077661,-15.01386 z"
         id="path3730"
         inkscape:connector-curvature="0" />
      <path
         style="fill:#f9f9f9;fill-opacity:1;stroke-width:0.26458332"
         d="m 40.122173,190.02556 c -9.211102,-0.8154 -17.538679,-6.72681 -21.473461,-15.24313 -1.665011,-3.60369 -2.276671,-6.54381 -2.276671,-10.94344 0,-3.29417 0.09798,-4.20779 0.693169,-6.46341 2.233242,-8.46345 8.508948,-15.36781 16.590219,-18.2521 1.373897,-0.49036 3.415176,-1.039 4.536176,-1.21921 2.510663,-0.4036 8.7721,-0.20175 10.685197,0.34446 l 1.346297,0.38438 3.482348,-8.24188 c 1.915292,-4.53303 3.482351,-8.32718 3.482351,-8.43143 0,-0.10426 -1.849292,-0.18956 -4.10954,-0.18956 -4.433819,0 -5.522315,-0.23366 -6.306923,-1.35384 -0.783892,-1.11916 -0.463447,-2.77164 0.723992,-3.73351 0.496023,-0.40179 1.270334,-0.45785 6.395702,-0.46302 l 5.831355,-0.006 1.014979,-2.39698 c 0.665218,-1.57098 1.250127,-2.55111 1.697365,-2.84427 0.593159,-0.38881 1.517605,-0.44729 7.069915,-0.44729 7.086513,0 7.451979,0.0731 8.194688,1.6382 0.557199,1.17421 0.310653,2.2604 -0.707535,3.11715 -0.790327,0.66501 -0.822315,0.66861 -5.948553,0.66861 h -5.153951 l -0.552362,1.2487 c -0.303798,0.68679 -1.299565,3.00927 -2.212814,5.16108 l -1.660453,3.91237 19.480918,-0.0678 19.480919,-0.0679 1.64497,-3.96875 c 0.90473,-2.18281 1.65374,-4.11757 1.66448,-4.29947 0.0143,-0.24173 -0.62679,-0.33073 -2.38209,-0.33073 -2.301626,0 -2.433798,-0.0322 -3.174999,-0.7734 -1.389783,-1.38978 -0.907926,-3.87832 0.871042,-4.49847 0.510104,-0.17783 3.728767,-0.28438 8.589997,-0.28438 6.22694,0 7.95874,0.0771 8.70129,0.38735 1.84618,0.77138 2.09934,3.34318 0.45631,4.63559 -0.59222,0.46584 -1.07059,0.53331 -3.78162,0.53331 h -3.10363 l -2.28727,5.62239 c -1.258,3.09232 -2.28609,5.78572 -2.28465,5.98535 10e-4,0.19962 1.73919,2.83669 3.86165,5.86016 l 3.85901,5.4972 1.67703,-0.7604 c 3.15148,-1.42895 5.24277,-1.87847 9.4185,-2.02453 4.37558,-0.15304 6.66412,0.1856 10.40704,1.53995 6.26358,2.26643 12.31967,8.08249 14.91993,14.32859 1.49368,3.58797 1.99311,6.21137 1.9772,10.38566 -0.0119,3.11699 -0.1237,4.12058 -0.70538,6.33111 -2.86293,10.8798 -12.2035,18.82093 -23.18735,19.71335 -12.1574,0.98778 -23.15001,-6.12386 -27.1538,-17.56709 -0.808478,-2.3107 -0.862562,-2.3892 -1.592074,-2.31079 -0.41534,0.0447 -3.135505,0.49113 -6.044808,0.99219 -6.462082,1.11294 -6.777376,1.12036 -7.796741,0.18342 -0.435385,-0.40019 -6.51778,-9.00245 -13.516432,-19.11615 -6.998652,-10.1137 -12.818985,-18.4227 -12.934074,-18.46446 -0.115088,-0.0418 -0.69428,1.08934 -1.287086,2.51354 -0.59281,1.42421 -1.260885,3.02414 -1.484617,3.5554 l -0.406784,0.96595 1.773529,1.15072 c 3.850457,2.49831 7.825403,7.2747 9.598437,11.53372 1.625772,3.90528 1.940489,5.58985 1.940489,10.3868 0,4.79694 -0.314717,6.48151 -1.940489,10.38679 -1.727713,4.15016 -5.49126,8.7492 -9.238689,11.28966 -3.463319,2.34785 -8.106102,4.09706 -11.661282,4.39348 -0.952389,0.0794 -2.148334,0.1803 -2.657657,0.2242 -0.509323,0.0439 -1.878542,-0.004 -3.042709,-0.10756 z m 7.276042,-5.99392 c 7.620928,-1.82212 13.864081,-8.23423 15.490898,-15.91013 0.479393,-2.26196 0.480655,-6.29717 0.0027,-8.55225 -0.826711,-3.90035 -3.115802,-7.98209 -5.999561,-10.69797 -1.45024,-1.36581 -3.604448,-2.92201 -3.781788,-2.73196 -0.05382,0.0577 -1.904428,4.39112 -4.112468,9.62987 -2.660285,6.31172 -4.237075,9.72582 -4.674029,10.12031 -0.792451,0.71543 -2.450457,0.80152 -3.403963,0.17676 -0.7597,-0.49777 -1.308527,-1.97855 -1.044615,-2.81844 0.103601,-0.32971 1.957686,-4.78809 4.120191,-9.90751 2.162508,-5.11943 3.931829,-9.36747 3.931829,-9.4401 0,-0.3343 -3.298541,-0.76669 -5.688541,-0.74569 -7.836132,0.0689 -14.818505,4.48863 -18.256775,11.55633 -1.687074,3.46795 -2.08662,5.21102 -2.092339,9.12813 -0.0039,2.65111 0.114027,3.72427 0.594227,5.40898 3.10735,10.90167 14.033678,17.38516 24.914262,14.78367 z m 83.079165,-0.11477 c 4.00814,-1.00653 8.21846,-3.6922 10.86487,-6.93044 1.63432,-1.99981 3.51174,-5.75757 4.12312,-8.25265 0.60912,-2.48583 0.60912,-7.30375 0,-9.78958 -0.2496,-1.01865 -0.97739,-2.92365 -1.6173,-4.23334 -3.8391,-7.8574 -12.04992,-12.37842 -20.85933,-11.4855 -2.09959,0.21281 -5.80686,1.25954 -6.33635,1.78903 -0.15792,0.15792 1.80181,3.17435 5.29402,8.1486 3.04961,4.34383 5.69176,8.1783 5.87145,8.52105 0.47099,0.89839 0.12763,2.27661 -0.75147,3.01633 -0.6172,0.51934 -1.63962,0.78172 -5.87799,1.50845 -2.82195,0.48387 -7.57159,1.31165 -10.55477,1.83953 -6.14905,1.08807 -5.74111,0.77682 -4.63613,3.53732 1.06315,2.65598 2.31541,4.48073 4.76842,6.94831 1.91772,1.92913 2.84478,2.6329 4.7625,3.61544 4.98192,2.55248 9.63308,3.10239 14.94896,1.76745 z M 94.758629,165.1619 c 1.81901,-0.3027 3.498308,-0.60765 3.731773,-0.67765 0.334124,-0.1002 0.45746,-0.64706 0.579406,-2.56909 0.384948,-6.06728 2.984072,-11.86607 7.358672,-16.41759 1.00314,-1.04372 1.8239,-1.9633 1.8239,-2.04352 0,-0.38677 -5.52813,-7.92044 -5.65789,-7.7105 -0.27574,0.44617 -12.069194,29.77163 -12.069194,30.01113 0,0.13015 0.208359,0.17385 0.463021,0.0971 0.254661,-0.0767 1.951302,-0.38718 3.770312,-0.68989 z m 25.493161,-4.50945 c 0.0628,-0.0664 -0.72726,-1.31138 -1.75571,-2.76659 -1.02845,-1.45521 -2.99259,-4.23538 -4.36477,-6.17815 l -2.49486,-3.53233 -1.05547,1.01879 c -3.22475,3.11266 -5.57209,8.01189 -5.94343,12.40474 l -0.15946,1.88643 7.82976,-1.35607 c 4.30636,-0.74583 7.88114,-1.4104 7.94394,-1.47682 z M 91.820717,147.50503 c 3.362103,-8.32883 6.112912,-15.26422 6.112912,-15.41198 0,-0.17899 -5.607288,-0.26864 -16.801041,-0.26864 -9.240572,0 -16.801041,0.0713 -16.801041,0.15845 0,0.21572 21.222771,30.83129 21.308279,30.73893 0.03739,-0.0404 2.818789,-6.88793 6.180891,-15.21676 z"
         id="path3728"
         inkscape:connector-curvature="0" />
      <path
         style="fill:#f9f9f9;fill-opacity:1;stroke-width:0.26458332"
         d="m 37.25857,189.61754 c -4.982319,-1.111 -9.21042,-3.36398 -12.824498,-6.83364 -5.366572,-5.15212 -8.069326,-11.4519 -8.071065,-18.81262 -0.0017,-7.19956 2.337303,-13.11398 7.199768,-18.20535 3.36065,-3.51886 7.109044,-5.80963 11.796899,-7.20947 3.100643,-0.92589 8.64917,-1.19013 11.906249,-0.56702 1.164167,0.22271 2.30323,0.47888 2.531253,0.56925 0.333338,0.13212 1.116142,-1.49357 3.994435,-8.29548 l 3.579852,-8.45981 -4.571301,-0.0827 c -4.153688,-0.0752 -4.639458,-0.13339 -5.317355,-0.63725 -0.963371,-0.71605 -1.348912,-2.14589 -0.882335,-3.2723 0.608404,-1.46882 1.210477,-1.59714 7.493796,-1.59714 h 5.663996 l 0.98778,-2.38309 c 0.543277,-1.31071 1.24157,-2.56086 1.551762,-2.77813 0.464479,-0.32533 1.758567,-0.39503 7.334779,-0.39503 h 6.770793 l 0.675069,0.7276 c 0.871839,0.93969 1.067739,1.80056 0.641675,2.81982 -0.650031,1.55504 -0.820933,1.6001 -6.615342,1.74425 l -5.318024,0.13229 -2.164617,5.02708 c -1.190541,2.7649 -2.172806,5.11715 -2.182813,5.22723 -0.01,0.11008 8.744423,0.16961 19.454293,0.13229 l 19.472481,-0.0678 1.69418,-4.22527 c 0.9318,-2.32389 1.69418,-4.3067 1.69418,-4.40623 0,-0.0995 -1.14154,-0.22222 -2.53676,-0.27265 -2.399222,-0.0867 -2.571363,-0.13193 -3.174999,-0.83404 -0.925444,-1.07642 -0.871723,-2.55974 0.133466,-3.68524 l 0.771705,-0.86407 7.893398,-0.0804 c 4.34137,-0.0442 8.29329,-0.007 8.78204,0.0835 2.03828,0.37602 2.89423,2.94205 1.51647,4.54619 -0.6227,0.72502 -0.716,0.74544 -3.99541,0.87465 l -3.35782,0.13229 -2.23307,5.55625 c -1.22819,3.05594 -2.18837,5.79437 -2.13373,6.08541 0.0547,0.29105 1.79158,2.93015 3.85985,5.86467 l 3.76049,5.33551 1.68426,-0.76368 c 3.49789,-1.58602 5.62086,-1.9719 10.72594,-1.9496 4.25569,0.0186 4.82206,0.0787 7.00198,0.74286 9.4889,2.89112 16.49306,10.39736 18.54506,19.87441 0.61411,2.83622 0.61411,8.0117 0,10.84792 -1.7593,8.12521 -7.73835,15.48382 -15.14026,18.63362 -3.97768,1.69266 -5.61449,2.00387 -10.53907,2.00387 -5.37244,0 -7.45873,-0.45063 -11.64166,-2.51456 -6.2841,-3.10067 -11.13037,-8.58373 -13.24083,-14.98066 -0.42615,-1.29169 -0.788638,-2.38055 -0.805524,-2.41969 -0.01688,-0.0391 -2.776757,0.40734 -6.133044,0.99219 -3.356287,0.58484 -6.467617,1.06335 -6.91407,1.06335 -0.518586,0 -1.095576,-0.26276 -1.597726,-0.7276 -0.432297,-0.40019 -6.342525,-8.76433 -13.133839,-18.58698 -6.791312,-9.82266 -12.584676,-18.19432 -12.874138,-18.6037 l -0.526298,-0.74432 -1.557578,3.65336 c -0.856668,2.00936 -1.557579,3.67461 -1.557579,3.70057 0,0.026 0.849861,0.61219 1.888578,1.30273 5.165769,3.43419 9.217051,9.19106 10.848088,15.41512 0.757457,2.89047 0.933127,7.71609 0.393377,10.80595 -1.755127,10.04742 -9.290544,18.34003 -19.083167,21.00073 -2.816823,0.76534 -9.427258,0.96196 -12.12402,0.36061 z m 10.528939,-5.66828 c 1.971437,-0.50421 5.044342,-1.89271 6.606982,-2.98538 1.512419,-1.05755 4.174749,-3.75834 5.228418,-5.30393 4.924176,-7.22314 4.924176,-16.41878 0,-23.64192 -1.470898,-2.15762 -5.492438,-5.90613 -6.336318,-5.90613 -0.136203,0 -2.06248,4.31602 -4.280614,9.59115 -2.646059,6.2928 -4.257961,9.79587 -4.687205,10.18646 -0.951722,0.86601 -2.704549,0.82458 -3.614568,-0.0854 -1.371015,-1.37102 -1.362077,-1.40534 3.135863,-12.04332 3.277798,-7.75224 4.077919,-9.87238 3.792346,-10.04887 -0.619437,-0.38284 -3.168139,-0.64349 -5.790448,-0.59219 -5.818412,0.11382 -11.601331,2.96256 -15.352685,7.56292 -1.585489,1.94431 -3.511605,5.71347 -4.154233,8.12929 -0.631635,2.3745 -0.62803,7.70262 0.0068,10.05417 0.981537,3.63581 3.364925,7.69685 5.90714,10.06515 5.333402,4.96854 12.517689,6.81367 19.538518,5.01804 z m 82.425281,0.10135 c 2.49796,-0.60271 6.21404,-2.4861 8.27021,-4.19152 3.23066,-2.67956 5.67012,-6.45597 6.85447,-10.61112 0.85063,-2.98428 0.85063,-7.83369 0,-10.81797 -3.25852,-11.43205 -15.05362,-17.91063 -26.29,-14.44007 -3.18058,0.98239 -3.43111,0.19179 2.92483,9.22977 3.08455,4.38615 5.72131,8.27211 5.85946,8.63548 0.36552,0.96139 0.0354,2.17138 -0.77948,2.85706 -0.60705,0.5108 -2.25636,0.86321 -11.27683,2.40952 -5.81118,0.99616 -10.59939,1.83968 -10.64046,1.87449 -0.17998,0.15251 1.25122,3.63023 2.17029,5.27369 1.26186,2.25642 4.18284,5.35658 6.49567,6.89415 2.08963,1.38919 5.07386,2.62754 7.28372,3.0225 0.87312,0.15605 1.88516,0.33607 2.24896,0.40003 1.15024,0.20225 5.09245,-0.10492 6.87916,-0.53601 z m -34.792703,-18.98253 3.439584,-0.59804 0.18615,-2.40413 c 0.499446,-6.45037 3.147529,-12.29447 7.578759,-16.7257 l 1.80528,-1.80528 -2.80072,-3.99844 c -1.5404,-2.19914 -2.86025,-3.99797 -2.93301,-3.99739 -0.13036,0.001 -11.872077,29.0381 -12.109932,29.94766 -0.10174,0.38905 0.0055,0.44363 0.635965,0.32366 0.417087,-0.0794 2.306154,-0.41341 4.197924,-0.74234 z m 22.886453,-3.95212 c 1.09141,-0.18427 1.95695,-0.45065 1.92343,-0.59195 -0.0595,-0.25059 -5.493,-8.11014 -7.5587,-10.93356 l -1.03617,-1.41625 -1.18732,1.15166 c -3.20316,3.10698 -5.89957,9.01508 -5.89957,12.92657 v 1.23921 l 5.88698,-1.02032 c 3.23784,-0.56117 6.77995,-1.17108 7.87135,-1.35536 z M 91.948955,147.25372 c 3.29157,-8.17602 5.984674,-14.99234 5.984674,-15.1474 0,-0.19654 -5.096367,-0.28191 -16.829349,-0.28191 -13.357102,0 -16.802263,0.0682 -16.698075,0.33072 0.0722,0.18191 4.864729,7.1609 10.650066,15.50887 7.013818,10.12062 10.583637,15.05769 10.713402,14.81667 0.107034,-0.19881 2.887712,-7.05094 6.179282,-15.22695 z"
         id="path3726"
         inkscape:connector-curvature="0" />
    </g>
    <text
       xml:space="preserve"
       style="font-style:normal;font-weight:normal;font-size:10.58333302px;line-height:1.25;font-family:sans-serif;letter-spacing:0px;word-spacing:0px;fill:#000000;fill-opacity:1;stroke:none;stroke-width:0.26458332"
       x="179.64612"
       y="38.994781"
       id="text3790"><tspan
         sodipodi:role="line"
         id="tspan3788"
         x="179.64612"
         y="48.358551"
         style="font-style:normal;font-variant:normal;font-weight:normal;font-stretch:normal;font-size:10.58333302px;font-family:'Segoe MDL2 Assets';-inkscape-font-specification:'Segoe MDL2 Assets, Normal';font-variant-ligatures:normal;font-variant-caps:normal;font-variant-numeric:normal;font-feature-settings:normal;text-align:start;writing-mode:lr-tb;text-anchor:start;stroke-width:0.26458332" /></text>
  </g>
</svg>
